<mxfile host="app.diagrams.net" modified="2024-01-16T14:25:13.769Z" agent="Mozilla/5.0 (Windows NT 10.0; Win64; x64; rv:121.0) Gecko/20100101 Firefox/121.0" etag="zq3XhECGujdYLHe_I6eu" version="22.1.18" type="device">
  <diagram name="Page-1" id="arJp4ILqf5ed2CBST2v7">
    <mxGraphModel dx="1274" dy="1846" grid="1" gridSize="10" guides="1" tooltips="1" connect="1" arrows="1" fold="1" page="1" pageScale="1" pageWidth="827" pageHeight="1169" math="0" shadow="0">
      <root>
        <mxCell id="0" />
        <mxCell id="1" parent="0" />
        <mxCell id="kha2C9SQKNo4fGhGutHA-32" value="" style="whiteSpace=wrap;html=1;aspect=fixed;" parent="1" vertex="1">
          <mxGeometry x="90" y="-55" width="965" height="965" as="geometry" />
        </mxCell>
        <mxCell id="kha2C9SQKNo4fGhGutHA-1" value="Elève" style="shape=umlActor;verticalLabelPosition=bottom;verticalAlign=top;html=1;outlineConnect=0;" parent="1" vertex="1">
          <mxGeometry x="40" y="-10" width="30" height="60" as="geometry" />
        </mxCell>
        <mxCell id="kha2C9SQKNo4fGhGutHA-5" value="Enseignant" style="shape=umlActor;verticalLabelPosition=bottom;verticalAlign=top;html=1;outlineConnect=0;" parent="1" vertex="1">
          <mxGeometry x="40" y="260" width="30" height="60" as="geometry" />
        </mxCell>
        <mxCell id="kha2C9SQKNo4fGhGutHA-6" value="Directeur" style="shape=umlActor;verticalLabelPosition=bottom;verticalAlign=top;html=1;outlineConnect=0;" parent="1" vertex="1">
          <mxGeometry x="40" y="520" width="30" height="60" as="geometry" />
        </mxCell>
        <mxCell id="kha2C9SQKNo4fGhGutHA-7" value="Afficher menu principale" style="ellipse;whiteSpace=wrap;html=1;" parent="1" vertex="1">
          <mxGeometry x="200" y="150" width="120" height="80" as="geometry" />
        </mxCell>
        <mxCell id="kha2C9SQKNo4fGhGutHA-11" value="Afficher enseignant" style="ellipse;whiteSpace=wrap;html=1;" parent="1" vertex="1">
          <mxGeometry x="200" y="520" width="120" height="80" as="geometry" />
        </mxCell>
        <mxCell id="kha2C9SQKNo4fGhGutHA-13" value="Rechercher élève par id/nom" style="ellipse;whiteSpace=wrap;html=1;" parent="1" vertex="1">
          <mxGeometry x="200" y="240" width="120" height="80" as="geometry" />
        </mxCell>
        <mxCell id="kha2C9SQKNo4fGhGutHA-15" value="&lt;div&gt;- Ajouter un enseignant&lt;/div&gt;&lt;div&gt;- Supprimer un enseignant&lt;/div&gt;&lt;div&gt;- Modifier un enseignant&lt;br&gt;&lt;/div&gt;" style="shape=note2;boundedLbl=1;whiteSpace=wrap;html=1;size=25;verticalAlign=top;align=center;" parent="1" vertex="1">
          <mxGeometry x="690" y="510" width="180" height="100" as="geometry" />
        </mxCell>
        <mxCell id="kha2C9SQKNo4fGhGutHA-16" value="Afficher liste d&#39;élève" style="ellipse;whiteSpace=wrap;html=1;" parent="1" vertex="1">
          <mxGeometry x="200" y="330" width="120" height="80" as="geometry" />
        </mxCell>
        <mxCell id="kha2C9SQKNo4fGhGutHA-17" value="Gérer les enseignants" style="ellipse;whiteSpace=wrap;html=1;" parent="1" vertex="1">
          <mxGeometry x="560" y="520" width="120" height="80" as="geometry" />
        </mxCell>
        <mxCell id="kha2C9SQKNo4fGhGutHA-21" value="Afficher cours" style="ellipse;whiteSpace=wrap;html=1;" parent="1" vertex="1">
          <mxGeometry x="200" y="420" width="120" height="80" as="geometry" />
        </mxCell>
        <mxCell id="kha2C9SQKNo4fGhGutHA-22" value="Gérer les cours" style="ellipse;whiteSpace=wrap;html=1;" parent="1" vertex="1">
          <mxGeometry x="200" y="610" width="120" height="80" as="geometry" />
        </mxCell>
        <mxCell id="kha2C9SQKNo4fGhGutHA-24" value="&lt;div&gt;- Ajouter un élève&lt;/div&gt;&lt;div&gt;- Supprimer un élève&lt;/div&gt;&lt;div&gt;- Modifier un élève&lt;br&gt;&lt;/div&gt;" style="shape=note2;boundedLbl=1;whiteSpace=wrap;html=1;size=25;verticalAlign=top;align=center;" parent="1" vertex="1">
          <mxGeometry x="330" y="730" width="180" height="100" as="geometry" />
        </mxCell>
        <mxCell id="kha2C9SQKNo4fGhGutHA-25" value="&lt;div&gt;- Ajouter un cours&lt;/div&gt;&lt;div&gt;- Supprimer un cours&lt;/div&gt;&lt;div&gt;- Modifier un cours&lt;br&gt;&lt;/div&gt;" style="shape=note2;boundedLbl=1;whiteSpace=wrap;html=1;size=25;verticalAlign=top;align=center;" parent="1" vertex="1">
          <mxGeometry x="330" y="600" width="180" height="100" as="geometry" />
        </mxCell>
        <mxCell id="kha2C9SQKNo4fGhGutHA-28" value="Afficher emploi du temps" style="ellipse;whiteSpace=wrap;html=1;" parent="1" vertex="1">
          <mxGeometry x="200" y="40" width="120" height="80" as="geometry" />
        </mxCell>
        <mxCell id="kha2C9SQKNo4fGhGutHA-29" value="Afficher les cours d&#39;une periode" style="ellipse;whiteSpace=wrap;html=1;" parent="1" vertex="1">
          <mxGeometry x="560" y="40" width="120" height="80" as="geometry" />
        </mxCell>
        <mxCell id="kha2C9SQKNo4fGhGutHA-30" value="Extends" style="html=1;verticalAlign=bottom;labelBackgroundColor=none;endArrow=open;endFill=0;dashed=1;rounded=0;exitX=0;exitY=0.5;exitDx=0;exitDy=0;entryX=1;entryY=0.5;entryDx=0;entryDy=0;" parent="1" source="kha2C9SQKNo4fGhGutHA-29" target="kha2C9SQKNo4fGhGutHA-28" edge="1">
          <mxGeometry width="160" relative="1" as="geometry">
            <mxPoint x="538" y="73" as="sourcePoint" />
            <mxPoint x="410" y="80" as="targetPoint" />
          </mxGeometry>
        </mxCell>
        <mxCell id="kha2C9SQKNo4fGhGutHA-33" value="" style="rounded=0;whiteSpace=wrap;html=1;" parent="1" vertex="1">
          <mxGeometry x="412.5" y="-55" width="320" height="60" as="geometry" />
        </mxCell>
        <mxCell id="kha2C9SQKNo4fGhGutHA-34" value="&lt;h2&gt;&lt;font style=&quot;font-size: 18px;&quot;&gt;Application Ecole&lt;/font&gt;&lt;/h2&gt;" style="text;html=1;strokeColor=none;fillColor=none;align=center;verticalAlign=middle;whiteSpace=wrap;rounded=0;" parent="1" vertex="1">
          <mxGeometry x="482.5" y="-40" width="180" height="30" as="geometry" />
        </mxCell>
        <mxCell id="kha2C9SQKNo4fGhGutHA-37" value="Extends" style="endArrow=block;endSize=16;endFill=0;html=1;rounded=0;" parent="1" edge="1">
          <mxGeometry width="160" relative="1" as="geometry">
            <mxPoint x="54.5" y="380" as="sourcePoint" />
            <mxPoint x="54.5" y="490" as="targetPoint" />
          </mxGeometry>
        </mxCell>
        <mxCell id="kha2C9SQKNo4fGhGutHA-38" value="Extends" style="endArrow=block;endSize=16;endFill=0;html=1;rounded=0;" parent="1" edge="1">
          <mxGeometry width="160" relative="1" as="geometry">
            <mxPoint x="54.5" y="110" as="sourcePoint" />
            <mxPoint x="54.5" y="220" as="targetPoint" />
          </mxGeometry>
        </mxCell>
        <mxCell id="kha2C9SQKNo4fGhGutHA-42" value="" style="endArrow=none;html=1;rounded=0;exitX=1;exitY=0.3333333333333333;exitDx=0;exitDy=0;exitPerimeter=0;entryX=0;entryY=0.5;entryDx=0;entryDy=0;" parent="1" source="kha2C9SQKNo4fGhGutHA-1" target="kha2C9SQKNo4fGhGutHA-28" edge="1">
          <mxGeometry width="50" height="50" relative="1" as="geometry">
            <mxPoint x="120" y="115" as="sourcePoint" />
            <mxPoint x="170" y="65" as="targetPoint" />
          </mxGeometry>
        </mxCell>
        <mxCell id="kha2C9SQKNo4fGhGutHA-43" value="Extends" style="html=1;verticalAlign=bottom;labelBackgroundColor=none;endArrow=open;endFill=0;dashed=1;rounded=0;exitX=0;exitY=0.5;exitDx=0;exitDy=0;entryX=1;entryY=0.5;entryDx=0;entryDy=0;" parent="1" edge="1">
          <mxGeometry width="160" relative="1" as="geometry">
            <mxPoint x="560" y="279.5" as="sourcePoint" />
            <mxPoint x="320" y="279.5" as="targetPoint" />
          </mxGeometry>
        </mxCell>
        <mxCell id="kha2C9SQKNo4fGhGutHA-44" value="Afficher les informations de l&#39;élève" style="ellipse;whiteSpace=wrap;html=1;" parent="1" vertex="1">
          <mxGeometry x="550" y="240" width="120" height="80" as="geometry" />
        </mxCell>
        <mxCell id="kha2C9SQKNo4fGhGutHA-45" value="" style="endArrow=none;html=1;rounded=0;exitX=1;exitY=0.3333333333333333;exitDx=0;exitDy=0;exitPerimeter=0;entryX=0;entryY=0.625;entryDx=0;entryDy=0;entryPerimeter=0;" parent="1" source="kha2C9SQKNo4fGhGutHA-5" target="kha2C9SQKNo4fGhGutHA-16" edge="1">
          <mxGeometry width="50" height="50" relative="1" as="geometry">
            <mxPoint x="80" y="90" as="sourcePoint" />
            <mxPoint x="210" y="90" as="targetPoint" />
            <Array as="points" />
          </mxGeometry>
        </mxCell>
        <mxCell id="kha2C9SQKNo4fGhGutHA-46" value="" style="endArrow=none;html=1;rounded=0;exitX=1;exitY=0.3333333333333333;exitDx=0;exitDy=0;exitPerimeter=0;entryX=0;entryY=0.5;entryDx=0;entryDy=0;" parent="1" source="kha2C9SQKNo4fGhGutHA-5" target="kha2C9SQKNo4fGhGutHA-13" edge="1">
          <mxGeometry width="50" height="50" relative="1" as="geometry">
            <mxPoint x="80" y="290" as="sourcePoint" />
            <mxPoint x="210" y="200" as="targetPoint" />
            <Array as="points" />
          </mxGeometry>
        </mxCell>
        <mxCell id="kha2C9SQKNo4fGhGutHA-47" value="" style="endArrow=none;html=1;rounded=0;exitX=1;exitY=0.3333333333333333;exitDx=0;exitDy=0;exitPerimeter=0;entryX=0.042;entryY=0.325;entryDx=0;entryDy=0;entryPerimeter=0;" parent="1" source="kha2C9SQKNo4fGhGutHA-5" target="kha2C9SQKNo4fGhGutHA-21" edge="1">
          <mxGeometry width="50" height="50" relative="1" as="geometry">
            <mxPoint x="80" y="290" as="sourcePoint" />
            <mxPoint x="210" y="200" as="targetPoint" />
            <Array as="points" />
          </mxGeometry>
        </mxCell>
        <mxCell id="kha2C9SQKNo4fGhGutHA-48" value="" style="endArrow=none;html=1;rounded=0;exitX=1;exitY=0.3333333333333333;exitDx=0;exitDy=0;exitPerimeter=0;entryX=0.042;entryY=0.738;entryDx=0;entryDy=0;entryPerimeter=0;" parent="1" source="kha2C9SQKNo4fGhGutHA-5" target="kha2C9SQKNo4fGhGutHA-7" edge="1">
          <mxGeometry width="50" height="50" relative="1" as="geometry">
            <mxPoint x="80" y="290" as="sourcePoint" />
            <mxPoint x="210" y="390" as="targetPoint" />
            <Array as="points" />
          </mxGeometry>
        </mxCell>
        <mxCell id="kha2C9SQKNo4fGhGutHA-49" value="Extends" style="html=1;verticalAlign=bottom;labelBackgroundColor=none;endArrow=open;endFill=0;dashed=1;rounded=0;exitX=0;exitY=0.5;exitDx=0;exitDy=0;entryX=1;entryY=0.5;entryDx=0;entryDy=0;" parent="1" edge="1">
          <mxGeometry width="160" relative="1" as="geometry">
            <mxPoint x="560" y="559.5" as="sourcePoint" />
            <mxPoint x="320" y="559.5" as="targetPoint" />
          </mxGeometry>
        </mxCell>
        <mxCell id="kha2C9SQKNo4fGhGutHA-50" value="Gérer les élèves" style="ellipse;whiteSpace=wrap;html=1;" parent="1" vertex="1">
          <mxGeometry x="200" y="700" width="120" height="80" as="geometry" />
        </mxCell>
        <mxCell id="kha2C9SQKNo4fGhGutHA-51" value="" style="endArrow=none;html=1;rounded=0;exitX=1;exitY=0.3333333333333333;exitDx=0;exitDy=0;exitPerimeter=0;entryX=0;entryY=0.5;entryDx=0;entryDy=0;" parent="1" source="kha2C9SQKNo4fGhGutHA-6" target="kha2C9SQKNo4fGhGutHA-11" edge="1">
          <mxGeometry width="50" height="50" relative="1" as="geometry">
            <mxPoint x="80" y="290" as="sourcePoint" />
            <mxPoint x="215" y="456" as="targetPoint" />
            <Array as="points" />
          </mxGeometry>
        </mxCell>
        <mxCell id="kha2C9SQKNo4fGhGutHA-52" value="" style="endArrow=none;html=1;rounded=0;exitX=1;exitY=0.3333333333333333;exitDx=0;exitDy=0;exitPerimeter=0;entryX=0;entryY=0.5;entryDx=0;entryDy=0;" parent="1" source="kha2C9SQKNo4fGhGutHA-6" target="kha2C9SQKNo4fGhGutHA-22" edge="1">
          <mxGeometry width="50" height="50" relative="1" as="geometry">
            <mxPoint x="80" y="490" as="sourcePoint" />
            <mxPoint x="210" y="570" as="targetPoint" />
            <Array as="points" />
          </mxGeometry>
        </mxCell>
        <mxCell id="kha2C9SQKNo4fGhGutHA-53" value="" style="endArrow=none;html=1;rounded=0;exitX=1;exitY=0.3333333333333333;exitDx=0;exitDy=0;exitPerimeter=0;entryX=0;entryY=0.5;entryDx=0;entryDy=0;" parent="1" source="kha2C9SQKNo4fGhGutHA-6" target="kha2C9SQKNo4fGhGutHA-50" edge="1">
          <mxGeometry width="50" height="50" relative="1" as="geometry">
            <mxPoint x="90" y="500" as="sourcePoint" />
            <mxPoint x="220" y="580" as="targetPoint" />
            <Array as="points" />
          </mxGeometry>
        </mxCell>
      </root>
    </mxGraphModel>
  </diagram>
</mxfile>
